<?xml version="1.0" encoding="utf-8"?>
<svg version="1.0" width="140" height="140" viewBox="1.758 1.172 27.176 28.135" preserveAspectRatio="xMidYMid meet" id="svg841" xmlns="http://www.w3.org/2000/svg" xmlns:xlink="http://www.w3.org/1999/xlink">
    <defs id="defs845">
        <linearGradient x1="-7708.7969" y1="-803.36011" x2="-7633.1528" y2="-714.90741" id="SVGID_1_" gradientUnits="userSpaceOnUse" gradientTransform="matrix(0.4226,-0.9063,0.9063,0.4226,4226.9761,-6584.5938)">
            <stop id="stop4704" style="stop-color:#f69923;stop-opacity:1" offset="0"/>
            <stop id="stop4706" style="stop-color:#f79a23;stop-opacity:1" offset="0.3123"/>
            <stop id="stop4708" style="stop-color:#e97826;stop-opacity:1" offset="0.8383"/>
        </linearGradient>
        <linearGradient x1="-8268.6387" y1="-813.12323" x2="-7728.9585" y2="-813.12323" id="SVGID_2_" gradientUnits="userSpaceOnUse" gradientTransform="matrix(0.4226,-0.9063,0.9063,0.4226,4226.9761,-6584.5938)">
            <stop id="stop4729" style="stop-color:#9e2064;stop-opacity:1" offset="0.3233"/>
            <stop id="stop4731" style="stop-color:#c92037;stop-opacity:1" offset="0.6302"/>
            <stop id="stop4733" style="stop-color:#cd2335;stop-opacity:1" offset="0.7514"/>
            <stop id="stop4735" style="stop-color:#e97826;stop-opacity:1" offset="1"/>
        </linearGradient>
        <linearGradient x1="-8203.4922" y1="-758.99402" x2="-7881.895" y2="-758.99402" id="SVGID_3_" gradientUnits="userSpaceOnUse" gradientTransform="matrix(0.4226,-0.9063,0.9063,0.4226,4226.9761,-6584.5938)">
            <stop id="stop4740" style="stop-color:#282662;stop-opacity:1" offset="0"/>
            <stop id="stop4742" style="stop-color:#662e8d;stop-opacity:1" offset="0.0955"/>
            <stop id="stop4744" style="stop-color:#9f2064;stop-opacity:1" offset="0.7882"/>
            <stop id="stop4746" style="stop-color:#cd2032;stop-opacity:1" offset="0.9487"/>
        </linearGradient>
        <linearGradient x1="-8238.3281" y1="-818.15222" x2="-7698.647" y2="-818.15222" id="SVGID_4_" gradientUnits="userSpaceOnUse" gradientTransform="matrix(0.4226,-0.9063,0.9063,0.4226,4226.9761,-6584.5938)">
            <stop id="stop4751" style="stop-color:#9e2064;stop-opacity:1" offset="0.3233"/>
            <stop id="stop4753" style="stop-color:#c92037;stop-opacity:1" offset="0.6302"/>
            <stop id="stop4755" style="stop-color:#cd2335;stop-opacity:1" offset="0.7514"/>
            <stop id="stop4757" style="stop-color:#e97826;stop-opacity:1" offset="1"/>
        </linearGradient>
        <linearGradient x1="-8198.9678" y1="-810.85059" x2="-7915.3501" y2="-810.85059" id="SVGID_5_" gradientUnits="userSpaceOnUse" gradientTransform="matrix(0.4226,-0.9063,0.9063,0.4226,4226.9761,-6584.5938)">
            <stop id="stop4762" style="stop-color:#282662;stop-opacity:1" offset="0"/>
            <stop id="stop4764" style="stop-color:#662e8d;stop-opacity:1" offset="0.0955"/>
            <stop id="stop4766" style="stop-color:#9f2064;stop-opacity:1" offset="0.7882"/>
            <stop id="stop4768" style="stop-color:#cd2032;stop-opacity:1" offset="0.9487"/>
        </linearGradient>
        <linearGradient x1="-8238.3281" y1="-762.29712" x2="-7698.647" y2="-762.29712" id="SVGID_6_" gradientUnits="userSpaceOnUse" gradientTransform="matrix(0.4226,-0.9063,0.9063,0.4226,4226.9761,-6584.5938)">
            <stop id="stop4773" style="stop-color:#9e2064;stop-opacity:1" offset="0.3233"/>
            <stop id="stop4775" style="stop-color:#c92037;stop-opacity:1" offset="0.6302"/>
            <stop id="stop4777" style="stop-color:#cd2335;stop-opacity:1" offset="0.7514"/>
            <stop id="stop4779" style="stop-color:#e97826;stop-opacity:1" offset="1"/>
        </linearGradient>
        <linearGradient x1="-8271.8057" y1="-765.07068" x2="-7732.125" y2="-765.07068" id="SVGID_7_" gradientUnits="userSpaceOnUse" gradientTransform="matrix(0.4226,-0.9063,0.9063,0.4226,4226.9761,-6584.5938)">
            <stop id="stop4784" style="stop-color:#9e2064;stop-opacity:1" offset="0.3233"/>
            <stop id="stop4786" style="stop-color:#c92037;stop-opacity:1" offset="0.6302"/>
            <stop id="stop4788" style="stop-color:#cd2335;stop-opacity:1" offset="0.7514"/>
            <stop id="stop4790" style="stop-color:#e97826;stop-opacity:1" offset="1"/>
        </linearGradient>
        <linearGradient x1="-8238.3281" y1="-745.68481" x2="-7698.647" y2="-745.68481" id="SVGID_8_" gradientUnits="userSpaceOnUse" gradientTransform="matrix(0.4226,-0.9063,0.9063,0.4226,4226.9761,-6584.5938)">
            <stop id="stop4799" style="stop-color:#9e2064;stop-opacity:1" offset="0.3233"/>
            <stop id="stop4801" style="stop-color:#c92037;stop-opacity:1" offset="0.6302"/>
            <stop id="stop4803" style="stop-color:#cd2335;stop-opacity:1" offset="0.7514"/>
            <stop id="stop4805" style="stop-color:#e97826;stop-opacity:1" offset="1"/>
        </linearGradient>
        <linearGradient x1="-8238.3281" y1="-747.58557" x2="-7698.647" y2="-747.58557" id="SVGID_9_" gradientUnits="userSpaceOnUse" gradientTransform="matrix(0.4226,-0.9063,0.9063,0.4226,4226.9761,-6584.5938)">
            <stop id="stop4814" style="stop-color:#9e2064;stop-opacity:1" offset="0.3233"/>
            <stop id="stop4816" style="stop-color:#c92037;stop-opacity:1" offset="0.6302"/>
            <stop id="stop4818" style="stop-color:#cd2335;stop-opacity:1" offset="0.7514"/>
            <stop id="stop4820" style="stop-color:#e97826;stop-opacity:1" offset="1"/>
        </linearGradient>
        <linearGradient x1="-7935.1431" y1="-747.9668" x2="-7815.856" y2="-747.9668" id="SVGID_10_" gradientUnits="userSpaceOnUse" gradientTransform="matrix(0.4226,-0.9063,0.9063,0.4226,4226.9761,-6584.5938)">
            <stop id="stop4829" style="stop-color:#9e2064;stop-opacity:1" offset="0.3233"/>
            <stop id="stop4831" style="stop-color:#c92037;stop-opacity:1" offset="0.6302"/>
            <stop id="stop4833" style="stop-color:#cd2335;stop-opacity:1" offset="0.7514"/>
            <stop id="stop4835" style="stop-color:#e97826;stop-opacity:1" offset="1"/>
        </linearGradient>
        <linearGradient x1="-7708.7969" y1="-803.36011" x2="-7633.1528" y2="-714.90741" id="linearGradient5344" gradientUnits="userSpaceOnUse" gradientTransform="matrix(0.4226,-0.9063,0.9063,0.4226,4226.9761,-6584.5938)" xlink:href="#SVGID_1_"/>
        <linearGradient x1="-8268.6387" y1="-813.12323" x2="-7728.9585" y2="-813.12323" id="linearGradient5346" gradientUnits="userSpaceOnUse" gradientTransform="matrix(0.4226,-0.9063,0.9063,0.4226,4226.9761,-6584.5938)" xlink:href="#SVGID_2_"/>
        <linearGradient x1="-8203.4922" y1="-758.99402" x2="-7881.895" y2="-758.99402" id="linearGradient5348" gradientUnits="userSpaceOnUse" gradientTransform="matrix(0.4226,-0.9063,0.9063,0.4226,4226.9761,-6584.5938)" xlink:href="#SVGID_3_"/>
        <linearGradient x1="-8238.3281" y1="-818.15222" x2="-7698.647" y2="-818.15222" id="linearGradient5350" gradientUnits="userSpaceOnUse" gradientTransform="matrix(0.4226,-0.9063,0.9063,0.4226,4226.9761,-6584.5938)" xlink:href="#SVGID_4_"/>
        <linearGradient x1="-8198.9678" y1="-810.85059" x2="-7915.3501" y2="-810.85059" id="linearGradient5352" gradientUnits="userSpaceOnUse" gradientTransform="matrix(0.4226,-0.9063,0.9063,0.4226,4226.9761,-6584.5938)" xlink:href="#SVGID_5_"/>
        <linearGradient x1="-8238.3281" y1="-762.29712" x2="-7698.647" y2="-762.29712" id="linearGradient5354" gradientUnits="userSpaceOnUse" gradientTransform="matrix(0.4226,-0.9063,0.9063,0.4226,4226.9761,-6584.5938)" xlink:href="#SVGID_6_"/>
        <linearGradient x1="-8271.8057" y1="-765.07068" x2="-7732.125" y2="-765.07068" id="linearGradient5356" gradientUnits="userSpaceOnUse" gradientTransform="matrix(0.4226,-0.9063,0.9063,0.4226,4226.9761,-6584.5938)" xlink:href="#SVGID_7_"/>
        <linearGradient x1="-8238.3281" y1="-745.68481" x2="-7698.647" y2="-745.68481" id="linearGradient5358" gradientUnits="userSpaceOnUse" gradientTransform="matrix(0.4226,-0.9063,0.9063,0.4226,4226.9761,-6584.5938)" xlink:href="#SVGID_8_"/>
        <linearGradient x1="-8238.3281" y1="-747.58557" x2="-7698.647" y2="-747.58557" id="linearGradient5360" gradientUnits="userSpaceOnUse" gradientTransform="matrix(0.4226,-0.9063,0.9063,0.4226,4226.9761,-6584.5938)" xlink:href="#SVGID_9_"/>
        <linearGradient x1="-7935.1431" y1="-747.9668" x2="-7815.856" y2="-747.9668" id="linearGradient5362" gradientUnits="userSpaceOnUse" gradientTransform="matrix(0.4226,-0.9063,0.9063,0.4226,4226.9761,-6584.5938)" xlink:href="#SVGID_10_"/>
        <linearGradient x1="-7708.7969" y1="-803.36011" x2="-7633.1528" y2="-714.90741" id="linearGradient7396-9" gradientUnits="userSpaceOnUse" gradientTransform="matrix(0.4226,-0.9063,0.9063,0.4226,4226.9761,-6584.5938)" xlink:href="#SVGID_1_"/>
        <linearGradient x1="-8268.6387" y1="-813.12323" x2="-7728.9585" y2="-813.12323" id="linearGradient7398-8" gradientUnits="userSpaceOnUse" gradientTransform="matrix(0.4226,-0.9063,0.9063,0.4226,4226.9761,-6584.5938)" xlink:href="#SVGID_2_"/>
        <linearGradient x1="-8203.4922" y1="-758.99402" x2="-7881.895" y2="-758.99402" id="linearGradient7400-4" gradientUnits="userSpaceOnUse" gradientTransform="matrix(0.4226,-0.9063,0.9063,0.4226,4226.9761,-6584.5938)" xlink:href="#SVGID_3_"/>
        <linearGradient x1="-8238.3281" y1="-818.15222" x2="-7698.647" y2="-818.15222" id="linearGradient7402-8" gradientUnits="userSpaceOnUse" gradientTransform="matrix(0.4226,-0.9063,0.9063,0.4226,4226.9761,-6584.5938)" xlink:href="#SVGID_4_"/>
        <linearGradient x1="-8198.9678" y1="-810.85059" x2="-7915.3501" y2="-810.85059" id="linearGradient7404-7" gradientUnits="userSpaceOnUse" gradientTransform="matrix(0.4226,-0.9063,0.9063,0.4226,4226.9761,-6584.5938)" xlink:href="#SVGID_5_"/>
        <linearGradient x1="-8238.3281" y1="-762.29712" x2="-7698.647" y2="-762.29712" id="linearGradient7406-06" gradientUnits="userSpaceOnUse" gradientTransform="matrix(0.4226,-0.9063,0.9063,0.4226,4226.9761,-6584.5938)" xlink:href="#SVGID_6_"/>
        <linearGradient x1="-8271.8057" y1="-765.07068" x2="-7732.125" y2="-765.07068" id="linearGradient7408-90" gradientUnits="userSpaceOnUse" gradientTransform="matrix(0.4226,-0.9063,0.9063,0.4226,4226.9761,-6584.5938)" xlink:href="#SVGID_7_"/>
        <linearGradient x1="-8238.3281" y1="-745.68481" x2="-7698.647" y2="-745.68481" id="linearGradient7410-1" gradientUnits="userSpaceOnUse" gradientTransform="matrix(0.4226,-0.9063,0.9063,0.4226,4226.9761,-6584.5938)" xlink:href="#SVGID_8_"/>
        <linearGradient x1="-8238.3281" y1="-747.58557" x2="-7698.647" y2="-747.58557" id="linearGradient7412-7" gradientUnits="userSpaceOnUse" gradientTransform="matrix(0.4226,-0.9063,0.9063,0.4226,4226.9761,-6584.5938)" xlink:href="#SVGID_9_"/>
        <linearGradient x1="-7935.1431" y1="-747.9668" x2="-7815.856" y2="-747.9668" id="linearGradient7414-5" gradientUnits="userSpaceOnUse" gradientTransform="matrix(0.4226,-0.9063,0.9063,0.4226,4226.9761,-6584.5938)" xlink:href="#SVGID_10_"/>
    </defs>
    <g id="layer1" style="display:inline">
        <g transform="matrix(0.05286239,0.00775644,-0.00775644,0.05286239,12.799476,-0.92716853)" id="g4701">
            <path d="m 267.1,19.6 c -8.4,5 -22.4,19 -39,39.3 l 15.3,28.9 c 10.7,-15.4 21.7,-29.2 32.7,-41 0.8,-0.9 1.3,-1.4 1.3,-1.4 -0.4,0.5 -0.9,0.9 -1.3,1.4 -3.6,3.9 -14.4,16.5 -30.7,41.6 15.7,-0.8 39.8,-4 59.5,-7.4 5.9,-32.8 -5.7,-47.8 -5.7,-47.8 0,0 -14.8,-23.9 -32.1,-13.6 z" id="path4710" style="fill:url(#linearGradient5344)"/>
            <path d="m 241.1,184.4 c 0.1,0 0.2,0 0.3,-0.1 l -2.2,0.2 c -0.1,0.1 -0.3,0.1 -0.4,0.2 0.8,-0.1 1.6,-0.2 2.3,-0.3 z" id="path4712" style="fill:none"/>
            <path d="m 225.5,236.1 c -1.2,0.3 -2.5,0.5 -3.8,0.7 1.3,-0.2 2.6,-0.4 3.8,-0.7 z" id="path4714" style="fill:none"/>
            <path d="m 119.3,352.2 c 0.2,-0.4 0.3,-0.9 0.5,-1.3 3.4,-8.9 6.7,-17.5 10,-26 3.7,-9.4 7.4,-18.6 11,-27.5 3.8,-9.3 7.6,-18.4 11.3,-27.1 3.9,-9.2 7.7,-18 11.5,-26.5 3.1,-6.9 6.1,-13.6 9.1,-20.1 1,-2.2 2,-4.3 3,-6.4 2,-4.2 3.9,-8.3 5.8,-12.3 1.8,-3.7 3.5,-7.3 5.2,-10.9 0.6,-1.2 1.2,-2.4 1.7,-3.5 0.1,-0.2 0.2,-0.4 0.3,-0.6 l -1.9,0.2 -1.5,-2.9 c -0.1,0.3 -0.3,0.6 -0.4,0.9 -2.7,5.3 -5.4,10.7 -8,16.2 -1.5,3.1 -3,6.3 -4.6,9.5 -4.2,8.8 -8.3,17.6 -12.3,26.6 -4.1,9 -8.1,18.1 -12,27.1 -3.9,8.9 -7.6,17.8 -11.3,26.7 -3.7,8.9 -7.3,17.7 -10.8,26.5 -3.7,9.2 -7.3,18.3 -10.7,27.3 -0.8,2 -1.6,4.1 -2.3,6.1 -2.8,7.3 -5.5,14.4 -8.1,21.5 l 2.4,4.7 2.1,-0.2 c 0.1,-0.2 0.2,-0.4 0.2,-0.6 3.1,-9.5 6.5,-18.6 9.8,-27.4 z" id="path4716" style="fill:none"/>
            <path d="m 220.7,236.9 v 0 c 0,0 0,0 0,0 0,0 0,0 0,0 z" id="path4718" style="fill:none"/>
            <path d="m 215.6,262.2 c -2,0.4 -4,0.7 -6,1 0,0 0,0 0,0 1,-0.1 2.1,-0.3 3.1,-0.5 1,-0.1 2,-0.3 2.9,-0.5 z" id="path4720" style="fill:#be202e"/>
            <path d="m 215.6,262.2 c -2,0.4 -4,0.7 -6,1 0,0 0,0 0,0 1,-0.1 2.1,-0.3 3.1,-0.5 1,-0.1 2,-0.3 2.9,-0.5 z" id="path4722" style="opacity:0.35;fill:#be202e"/>
            <path d="m 220.8,236.9 c 0,0 0,0 0,0 -0.1,0 -0.1,0 0,0 0.3,0 0.6,-0.1 0.9,-0.1 1.3,-0.2 2.6,-0.4 3.8,-0.7 -1.5,0.3 -3.1,0.5 -4.7,0.8 z" id="path4724" style="fill:#be202e"/>
            <path d="m 220.8,236.9 c 0,0 0,0 0,0 -0.1,0 -0.1,0 0,0 0.3,0 0.6,-0.1 0.9,-0.1 1.3,-0.2 2.6,-0.4 3.8,-0.7 -1.5,0.3 -3.1,0.5 -4.7,0.8 z" id="path4726" style="opacity:0.35;fill:#be202e"/>
            <path d="m 198.2,162.4 c 4.7,-8.7 9.4,-17.2 14.1,-25.5 4.9,-8.6 9.9,-16.9 15,-25 0.3,-0.5 0.6,-1 0.9,-1.4 5,-7.9 10,-15.5 15.1,-22.8 L 228,58.9 c -1.1,1.4 -2.3,2.8 -3.5,4.3 -4.4,5.5 -9,11.4 -13.7,17.7 -5.3,7.1 -10.7,14.6 -16.3,22.5 -5.1,7.3 -10.3,15 -15.5,22.9 -4.4,6.8 -8.8,13.7 -13.2,20.8 -0.2,0.3 -0.3,0.5 -0.5,0.8 l 19.9,39.3 c 4.4,-8.3 8.7,-16.6 13,-24.8 z" id="path4737" style="fill:url(#linearGradient5346)"/>
            <path d="m 107.5,384.1 c -2.6,7.2 -5.3,14.6 -7.9,22.2 0,0.1 -0.1,0.2 -0.1,0.3 -0.4,1.1 -0.8,2.1 -1.1,3.2 -1.8,5.1 -3.3,9.7 -6.9,20.1 5.9,2.7 10.6,9.7 15,17.7 -0.5,-8.3 -3.9,-16.1 -10.4,-22.1 28.9,1.3 53.9,-6 66.7,-27.2 1.1,-1.9 2.2,-3.9 3.2,-6 -5.9,7.4 -13.1,10.6 -26.8,9.8 0,0 -0.1,0 -0.1,0 0,0 0.1,0 0.1,0 20.1,-9 30.2,-17.7 39.1,-32 2.1,-3.4 4.2,-7.1 6.3,-11.2 -17.6,18.1 -38,23.2 -59.5,19.3 L 109,380 c -0.5,1.4 -1,2.7 -1.5,4.1 z" id="path4748" style="fill:url(#linearGradient5348)"/>
            <path d="m 115,348 c 3.5,-9 7.1,-18.1 10.7,-27.3 3.5,-8.8 7.1,-17.6 10.8,-26.5 3.7,-8.9 7.5,-17.8 11.3,-26.7 3.9,-9.1 7.9,-18.1 12,-27.1 4,-8.9 8.2,-17.8 12.3,-26.6 1.5,-3.2 3,-6.3 4.6,-9.5 2.6,-5.4 5.3,-10.8 8,-16.2 0.1,-0.3 0.3,-0.6 0.4,-0.9 L 165.4,148 c -0.3,0.5 -0.6,1.1 -1,1.6 -4.6,7.6 -9.3,15.3 -13.8,23.2 -4.6,8 -9.1,16.1 -13.5,24.4 -3.7,7 -7.3,14 -10.9,21.1 -0.7,1.4 -1.4,2.9 -2.1,4.3 -4.3,8.9 -8.3,17.6 -11.8,25.9 -4,9.4 -7.5,18.4 -10.6,26.9 -2,5.6 -3.9,11 -5.6,16.2 -1.4,4.4 -2.7,8.9 -4,13.3 -3,10.4 -5.5,20.8 -7.6,31.2 l 20,39.5 c 2.6,-7.1 5.4,-14.2 8.1,-21.5 0.8,-2 1.6,-4 2.4,-6.1 z" id="path4759" style="fill:url(#linearGradient5350)"/>
            <path d="m 84.2,337.5 c -2.5,12.6 -4.3,25.2 -5.2,37.8 0,0.4 -0.1,0.9 -0.1,1.3 -6.2,-10 -23,-19.8 -22.9,-19.7 12,17.4 21.1,34.6 22.4,51.5 -6.4,1.3 -15.2,-0.6 -25.3,-4.3 10.6,9.7 18.5,12.4 21.6,13.1 -9.7,0.6 -19.8,7.3 -30,15 14.9,-6.1 27,-8.5 35.6,-6.5 -13.7,38.7 -27.4,81.5 -41.1,126.9 4.2,-1.2 6.7,-4.1 8.1,-7.9 2.4,-8.2 18.7,-62.2 44.1,-133.1 0.7,-2 1.5,-4 2.2,-6.1 0.2,-0.6 0.4,-1.1 0.6,-1.7 2.7,-7.4 5.5,-15 8.4,-22.8 0.7,-1.8 1.3,-3.5 2,-5.3 0,0 0,-0.1 0,-0.1 l -20,-39.5 c -0.2,0.5 -0.3,0.9 -0.4,1.4 z" id="path4770" style="fill:url(#linearGradient5352)"/>
            <path d="m 188.4,190.6 c -0.6,1.2 -1.1,2.3 -1.7,3.5 -1.7,3.6 -3.5,7.2 -5.2,10.9 -1.9,4 -3.8,8.1 -5.8,12.3 -1,2.1 -2,4.2 -3,6.4 -3,6.5 -6,13.2 -9.1,20.1 -3.8,8.5 -7.6,17.3 -11.5,26.5 -3.7,8.7 -7.5,17.8 -11.3,27.1 -3.6,8.9 -7.3,18 -11,27.5 -3.3,8.4 -6.6,17.1 -10,26 -0.2,0.4 -0.3,0.9 -0.5,1.3 -3.3,8.8 -6.7,17.9 -10.1,27.2 -0.1,0.2 -0.2,0.4 -0.2,0.6 l 16.1,-1.8 c -0.3,-0.1 -0.6,-0.1 -1,-0.2 19.3,-2.4 44.9,-16.8 61.4,-34.6 7.6,-8.2 14.5,-17.8 20.9,-29.1 4.8,-8.4 9.2,-17.7 13.5,-28.1 3.7,-9 7.3,-18.8 10.7,-29.4 -4.4,2.3 -9.5,4 -15.1,5.2 -1,0.2 -2,0.4 -3,0.6 -1,0.2 -2,0.3 -3.1,0.5 v 0 0 c 0,0 0,0 0,0 18,-6.9 29.3,-20.2 37.5,-36.6 -4.7,3.2 -12.4,7.4 -21.6,9.5 -1.2,0.3 -2.5,0.5 -3.8,0.7 -0.3,0 -0.6,0.1 -1,0.1 v 0 0 c 0,0 0,0 0,0 0,0 0,0 0,0 v 0 c 6.2,-2.6 11.5,-5.5 16.1,-9 1,-0.7 1.9,-1.5 2.8,-2.3 1.4,-1.2 2.7,-2.5 4,-3.8 0.8,-0.9 1.6,-1.7 2.4,-2.6 1.8,-2.1 3.5,-4.4 5,-6.9 0.5,-0.8 1,-1.5 1.4,-2.3 0.6,-1.2 1.2,-2.3 1.7,-3.4 2.5,-5 4.5,-9.5 6.1,-13.5 0.8,-2 1.5,-3.8 2.1,-5.5 0.2,-0.7 0.5,-1.3 0.7,-2 0.6,-1.9 1.2,-3.6 1.6,-5.1 0.6,-2.2 1,-4 1.2,-5.3 v 0 0 c -0.6,0.5 -1.3,1 -2.1,1.4 -5.4,3.2 -14.7,6.2 -22.2,7.6 l 14.8,-1.6 -14.8,1.6 c -0.1,0 -0.2,0 -0.3,0.1 -0.7,0.1 -1.5,0.2 -2.3,0.4 0.1,-0.1 0.3,-0.1 0.4,-0.2 l -50.6,5.5 c 0.1,0.4 0,0.6 -0.1,0.7 z" id="path4781" style="fill:url(#linearGradient5354)"/>
            <path d="m 245.4,88.4 c -4.5,6.9 -9.4,14.8 -14.7,23.6 -0.3,0.5 -0.6,0.9 -0.8,1.4 -4.6,7.7 -9.4,16.1 -14.5,25.4 -4.4,8 -9,16.5 -13.8,25.8 -4.2,8 -8.4,16.5 -12.9,25.5 l 50.6,-5.5 c 14.7,-6.8 21.3,-12.9 27.7,-21.8 1.7,-2.4 3.4,-5 5.1,-7.7 5.2,-8.1 10.3,-17 14.8,-25.9 4.4,-8.6 8.3,-17.1 11.2,-24.7 1.9,-4.9 3.4,-9.4 4.5,-13.4 0.9,-3.5 1.6,-6.8 2.2,-10 -19.6,3.3 -43.7,6.5 -59.4,7.3 z" id="path4792" style="fill:url(#linearGradient5356)"/>
            <path d="m 212.7,262.8 c -1,0.2 -2,0.3 -3.1,0.5 v 0 c 1,-0.2 2,-0.4 3.1,-0.5 z" id="path4794" style="fill:#be202e"/>
            <path d="m 212.7,262.8 c -1,0.2 -2,0.3 -3.1,0.5 v 0 c 1,-0.2 2,-0.4 3.1,-0.5 z" id="path4796" style="opacity:0.35;fill:#be202e"/>
            <path d="m 212.7,262.8 c -1,0.2 -2,0.3 -3.1,0.5 v 0 c 1,-0.2 2,-0.4 3.1,-0.5 z" id="path4807" style="fill:url(#linearGradient5358)"/>
            <path d="m 220.7,236.9 c 0.3,0 0.6,-0.1 1,-0.1 -0.3,0 -0.6,0.1 -1,0.1 z" id="path4809" style="fill:#be202e"/>
            <path d="m 220.7,236.9 c 0.3,0 0.6,-0.1 1,-0.1 -0.3,0 -0.6,0.1 -1,0.1 z" id="path4811" style="opacity:0.35;fill:#be202e"/>
            <path d="m 220.7,236.9 c 0.3,0 0.6,-0.1 1,-0.1 -0.3,0 -0.6,0.1 -1,0.1 z" id="path4822" style="fill:url(#linearGradient5360)"/>
            <path d="m 220.8,236.9 c 0,0 0,0 0,0 v 0 0 0 c 0,0 0,0 0,0 z" id="path4824" style="fill:#be202e"/>
            <path d="m 220.8,236.9 c 0,0 0,0 0,0 v 0 0 0 c 0,0 0,0 0,0 z" id="path4826" style="opacity:0.35;fill:#be202e"/>
            <path d="m 220.8,236.9 c 0,0 0,0 0,0 v 0 0 0 c 0,0 0,0 0,0 z" id="path4837" style="fill:url(#linearGradient5362)"/>
        </g>
    </g>
    <g transform="matrix(0.00342536,0,0,-0.00342536,1.618465,28.634493)" fill="#eeeeee" stroke="none" id="g839">
        <path d="M 3035,7809 C 2832,7702 2285,7381 769,6477 L 203,6139 197,5372 C 193,4950 187,4192 183,3688 l -6,-918 h 156 157 v 1608 l 1,1607 392,230 c 579,339 1580,931 1997,1181 322,193 365,222 368,246 6,49 -62,154 -119,183 -15,8 -29,15 -31,15 -2,0 -30,-14 -63,-31 z" id="path827"/>
        <path d="M 3875,6592 C 3429,6371 2199,5667 1858,5439 c -104,-70 -118,-83 -128,-117 -61,-227 -38,-2478 27,-2648 7,-18 146,-112 378,-256 574,-354 1656,-986 1865,-1088 l 66,-32 69,35 c 119,60 627,345 1458,817 l 797,453 v 1386 1386 l -378,219 c -207,121 -501,292 -652,380 -632,367 -1216,680 -1290,692 -30,5 -60,-7 -195,-74 z m 728,-515 c 259,-150 714,-412 1010,-582 l 537,-310 -2,-1195 -3,-1195 -440,-248 c -242,-137 -710,-402 -1039,-589 -583,-331 -600,-340 -625,-325 -324,185 -1261,727 -1586,915 l -430,251 -3,1214 -2,1215 147,84 c 82,46 427,244 768,440 905,519 1057,597 1153,598 38,0 96,-31 515,-273 z" id="path829"/>
        <path d="m 4313,4917 c -88,-139 -622,-1312 -717,-1577 -53,-147 -52,-208 7,-253 43,-32 116,-69 126,-63 37,23 696,1478 792,1749 22,62 23,70 9,95 -17,30 -83,66 -148,81 l -43,9 z" id="path831"/>
        <path d="m 4877,4677 c -144,-164 -148,-175 -98,-243 15,-21 101,-115 191,-207 89,-92 161,-169 159,-171 -2,-1 -88,-64 -191,-140 -191,-139 -233,-178 -244,-223 -8,-30 19,-91 62,-142 26,-31 31,-33 75,-29 37,4 66,18 145,73 241,166 524,406 524,445 0,22 -44,83 -145,200 -124,144 -426,465 -439,467 -6,1 -24,-13 -39,-30 z" id="path833"/>
        <path d="m 3145,4625 c -109,-66 -431,-313 -532,-408 -29,-28 -53,-58 -53,-67 0,-25 112,-152 300,-339 190,-190 263,-249 314,-258 33,-5 40,-2 86,44 55,55 63,88 32,134 -9,14 -73,87 -141,162 -144,157 -184,213 -171,237 15,28 92,93 200,170 116,82 235,174 245,190 10,16 -29,71 -85,124 -65,60 -108,63 -195,11 z" id="path835"/>
        <path d="M 7520,3628 V 1995 L 6622,1480 C 5507,840 4813,425 4786,381 c -9,-14 20,-99 49,-143 26,-39 29,-40 71,-35 96,10 280,113 2139,1193 l 760,442 6,658 c 4,363 10,1133 14,1712 l 7,1052 h -156 -156 z" id="path837"/>
    </g>
    <g id="layer3">
        <g transform="matrix(0.03778955,-0.02773551,0.02773551,0.03778955,-2.299568,8.7716)" id="g7248">
            <path d="m 267.1,19.6 c -8.4,5 -22.4,19 -39,39.3 l 15.3,28.9 c 10.7,-15.4 21.7,-29.2 32.7,-41 0.8,-0.9 1.3,-1.4 1.3,-1.4 -0.4,0.5 -0.9,0.9 -1.3,1.4 -3.6,3.9 -14.4,16.5 -30.7,41.6 15.7,-0.8 39.8,-4 59.5,-7.4 5.9,-32.8 -5.7,-47.8 -5.7,-47.8 0,0 -14.8,-23.9 -32.1,-13.6 z" id="path7258" style="fill:url(#linearGradient7396-9)"/>
            <path d="m 241.1,184.4 c 0.1,0 0.2,0 0.3,-0.1 l -2.2,0.2 c -0.1,0.1 -0.3,0.1 -0.4,0.2 0.8,-0.1 1.6,-0.2 2.3,-0.3 z" id="path7260" style="fill:none"/>
            <path d="m 225.5,236.1 c -1.2,0.3 -2.5,0.5 -3.8,0.7 1.3,-0.2 2.6,-0.4 3.8,-0.7 z" id="path7262" style="fill:none"/>
            <path d="m 119.3,352.2 c 0.2,-0.4 0.3,-0.9 0.5,-1.3 3.4,-8.9 6.7,-17.5 10,-26 3.7,-9.4 7.4,-18.6 11,-27.5 3.8,-9.3 7.6,-18.4 11.3,-27.1 3.9,-9.2 7.7,-18 11.5,-26.5 3.1,-6.9 6.1,-13.6 9.1,-20.1 1,-2.2 2,-4.3 3,-6.4 2,-4.2 3.9,-8.3 5.8,-12.3 1.8,-3.7 3.5,-7.3 5.2,-10.9 0.6,-1.2 1.2,-2.4 1.7,-3.5 0.1,-0.2 0.2,-0.4 0.3,-0.6 l -1.9,0.2 -1.5,-2.9 c -0.1,0.3 -0.3,0.6 -0.4,0.9 -2.7,5.3 -5.4,10.7 -8,16.2 -1.5,3.1 -3,6.3 -4.6,9.5 -4.2,8.8 -8.3,17.6 -12.3,26.6 -4.1,9 -8.1,18.1 -12,27.1 -3.9,8.9 -7.6,17.8 -11.3,26.7 -3.7,8.9 -7.3,17.7 -10.8,26.5 -3.7,9.2 -7.3,18.3 -10.7,27.3 -0.8,2 -1.6,4.1 -2.3,6.1 -2.8,7.3 -5.5,14.4 -8.1,21.5 l 2.4,4.7 2.1,-0.2 c 0.1,-0.2 0.2,-0.4 0.2,-0.6 3.1,-9.5 6.5,-18.6 9.8,-27.4 z" id="path7264" style="fill:none"/>
            <path d="m 220.7,236.9 v 0 c 0,0 0,0 0,0 0,0 0,0 0,0 z" id="path7266" style="fill:none"/>
            <path d="m 215.6,262.2 c -2,0.4 -4,0.7 -6,1 0,0 0,0 0,0 1,-0.1 2.1,-0.3 3.1,-0.5 1,-0.1 2,-0.3 2.9,-0.5 z" id="path7268" style="fill:#be202e"/>
            <path d="m 215.6,262.2 c -2,0.4 -4,0.7 -6,1 0,0 0,0 0,0 1,-0.1 2.1,-0.3 3.1,-0.5 1,-0.1 2,-0.3 2.9,-0.5 z" id="path7270" style="opacity:0.35;fill:#be202e"/>
            <path d="m 220.8,236.9 c 0,0 0,0 0,0 -0.1,0 -0.1,0 0,0 0.3,0 0.6,-0.1 0.9,-0.1 1.3,-0.2 2.6,-0.4 3.8,-0.7 -1.5,0.3 -3.1,0.5 -4.7,0.8 z" id="path7272" style="fill:#be202e"/>
            <path d="m 220.8,236.9 c 0,0 0,0 0,0 -0.1,0 -0.1,0 0,0 0.3,0 0.6,-0.1 0.9,-0.1 1.3,-0.2 2.6,-0.4 3.8,-0.7 -1.5,0.3 -3.1,0.5 -4.7,0.8 z" id="path7274" style="opacity:0.35;fill:#be202e"/>
            <path d="m 198.2,162.4 c 4.7,-8.7 9.4,-17.2 14.1,-25.5 4.9,-8.6 9.9,-16.9 15,-25 0.3,-0.5 0.6,-1 0.9,-1.4 5,-7.9 10,-15.5 15.1,-22.8 L 228,58.9 c -1.1,1.4 -2.3,2.8 -3.5,4.3 -4.4,5.5 -9,11.4 -13.7,17.7 -5.3,7.1 -10.7,14.6 -16.3,22.5 -5.1,7.3 -10.3,15 -15.5,22.9 -4.4,6.8 -8.8,13.7 -13.2,20.8 -0.2,0.3 -0.3,0.5 -0.5,0.8 l 19.9,39.3 c 4.4,-8.3 8.7,-16.6 13,-24.8 z" id="path7286" style="fill:url(#linearGradient7398-8)"/>
            <path d="m 107.5,384.1 c -2.6,7.2 -5.3,14.6 -7.9,22.2 0,0.1 -0.1,0.2 -0.1,0.3 -0.4,1.1 -0.8,2.1 -1.1,3.2 -1.8,5.1 -3.3,9.7 -6.9,20.1 5.9,2.7 10.6,9.7 15,17.7 -0.5,-8.3 -3.9,-16.1 -10.4,-22.1 28.9,1.3 53.9,-6 66.7,-27.2 1.1,-1.9 2.2,-3.9 3.2,-6 -5.9,7.4 -13.1,10.6 -26.8,9.8 0,0 -0.1,0 -0.1,0 0,0 0.1,0 0.1,0 20.1,-9 30.2,-17.7 39.1,-32 2.1,-3.4 4.2,-7.1 6.3,-11.2 -17.6,18.1 -38,23.2 -59.5,19.3 L 109,380 c -0.5,1.4 -1,2.7 -1.5,4.1 z" id="path7298" style="fill:url(#linearGradient7400-4)"/>
            <path d="m 115,348 c 3.5,-9 7.1,-18.1 10.7,-27.3 3.5,-8.8 7.1,-17.6 10.8,-26.5 3.7,-8.9 7.5,-17.8 11.3,-26.7 3.9,-9.1 7.9,-18.1 12,-27.1 4,-8.9 8.2,-17.8 12.3,-26.6 1.5,-3.2 3,-6.3 4.6,-9.5 2.6,-5.4 5.3,-10.8 8,-16.2 0.1,-0.3 0.3,-0.6 0.4,-0.9 L 165.4,148 c -0.3,0.5 -0.6,1.1 -1,1.6 -4.6,7.6 -9.3,15.3 -13.8,23.2 -4.6,8 -9.1,16.1 -13.5,24.4 -3.7,7 -7.3,14 -10.9,21.1 -0.7,1.4 -1.4,2.9 -2.1,4.3 -4.3,8.9 -8.3,17.6 -11.8,25.9 -4,9.4 -7.5,18.4 -10.6,26.9 -2,5.6 -3.9,11 -5.6,16.2 -1.4,4.4 -2.7,8.9 -4,13.3 -3,10.4 -5.5,20.8 -7.6,31.2 l 20,39.5 c 2.6,-7.1 5.4,-14.2 8.1,-21.5 0.8,-2 1.6,-4 2.4,-6.1 z" id="path7310" style="fill:url(#linearGradient7402-8)"/>
            <path d="m 84.2,337.5 c -2.5,12.6 -4.3,25.2 -5.2,37.8 0,0.4 -0.1,0.9 -0.1,1.3 -6.2,-10 -23,-19.8 -22.9,-19.7 12,17.4 21.1,34.6 22.4,51.5 -6.4,1.3 -15.2,-0.6 -25.3,-4.3 10.6,9.7 18.5,12.4 21.6,13.1 -9.7,0.6 -19.8,7.3 -30,15 14.9,-6.1 27,-8.5 35.6,-6.5 -13.7,38.7 -27.4,81.5 -41.1,126.9 4.2,-1.2 6.7,-4.1 8.1,-7.9 2.4,-8.2 18.7,-62.2 44.1,-133.1 0.7,-2 1.5,-4 2.2,-6.1 0.2,-0.6 0.4,-1.1 0.6,-1.7 2.7,-7.4 5.5,-15 8.4,-22.8 0.7,-1.8 1.3,-3.5 2,-5.3 0,0 0,-0.1 0,-0.1 l -20,-39.5 c -0.2,0.5 -0.3,0.9 -0.4,1.4 z" id="path7322" style="fill:url(#linearGradient7404-7)"/>
            <path d="m 188.4,190.6 c -0.6,1.2 -1.1,2.3 -1.7,3.5 -1.7,3.6 -3.5,7.2 -5.2,10.9 -1.9,4 -3.8,8.1 -5.8,12.3 -1,2.1 -2,4.2 -3,6.4 -3,6.5 -6,13.2 -9.1,20.1 -3.8,8.5 -7.6,17.3 -11.5,26.5 -3.7,8.7 -7.5,17.8 -11.3,27.1 -3.6,8.9 -7.3,18 -11,27.5 -3.3,8.4 -6.6,17.1 -10,26 -0.2,0.4 -0.3,0.9 -0.5,1.3 -3.3,8.8 -6.7,17.9 -10.1,27.2 -0.1,0.2 -0.2,0.4 -0.2,0.6 l 16.1,-1.8 c -0.3,-0.1 -0.6,-0.1 -1,-0.2 19.3,-2.4 44.9,-16.8 61.4,-34.6 7.6,-8.2 14.5,-17.8 20.9,-29.1 4.8,-8.4 9.2,-17.7 13.5,-28.1 3.7,-9 7.3,-18.8 10.7,-29.4 -4.4,2.3 -9.5,4 -15.1,5.2 -1,0.2 -2,0.4 -3,0.6 -1,0.2 -2,0.3 -3.1,0.5 v 0 0 c 0,0 0,0 0,0 18,-6.9 29.3,-20.2 37.5,-36.6 -4.7,3.2 -12.4,7.4 -21.6,9.5 -1.2,0.3 -2.5,0.5 -3.8,0.7 -0.3,0 -0.6,0.1 -1,0.1 v 0 0 c 0,0 0,0 0,0 0,0 0,0 0,0 v 0 c 6.2,-2.6 11.5,-5.5 16.1,-9 1,-0.7 1.9,-1.5 2.8,-2.3 1.4,-1.2 2.7,-2.5 4,-3.8 0.8,-0.9 1.6,-1.7 2.4,-2.6 1.8,-2.1 3.5,-4.4 5,-6.9 0.5,-0.8 1,-1.5 1.4,-2.3 0.6,-1.2 1.2,-2.3 1.7,-3.4 2.5,-5 4.5,-9.5 6.1,-13.5 0.8,-2 1.5,-3.8 2.1,-5.5 0.2,-0.7 0.5,-1.3 0.7,-2 0.6,-1.9 1.2,-3.6 1.6,-5.1 0.6,-2.2 1,-4 1.2,-5.3 v 0 0 c -0.6,0.5 -1.3,1 -2.1,1.4 -5.4,3.2 -14.7,6.2 -22.2,7.6 l 14.8,-1.6 -14.8,1.6 c -0.1,0 -0.2,0 -0.3,0.1 -0.7,0.1 -1.5,0.2 -2.3,0.4 0.1,-0.1 0.3,-0.1 0.4,-0.2 l -50.6,5.5 c 0.1,0.4 0,0.6 -0.1,0.7 z" id="path7334" style="fill:url(#linearGradient7406-06)"/>
            <path d="m 245.4,88.4 c -4.5,6.9 -9.4,14.8 -14.7,23.6 -0.3,0.5 -0.6,0.9 -0.8,1.4 -4.6,7.7 -9.4,16.1 -14.5,25.4 -4.4,8 -9,16.5 -13.8,25.8 -4.2,8 -8.4,16.5 -12.9,25.5 l 50.6,-5.5 c 14.7,-6.8 21.3,-12.9 27.7,-21.8 1.7,-2.4 3.4,-5 5.1,-7.7 5.2,-8.1 10.3,-17 14.8,-25.9 4.4,-8.6 8.3,-17.1 11.2,-24.7 1.9,-4.9 3.4,-9.4 4.5,-13.4 0.9,-3.5 1.6,-6.8 2.2,-10 -19.6,3.3 -43.7,6.5 -59.4,7.3 z" id="path7346" style="fill:url(#linearGradient7408-90)"/>
            <path d="m 212.7,262.8 c -1,0.2 -2,0.3 -3.1,0.5 v 0 c 1,-0.2 2,-0.4 3.1,-0.5 z" id="path7348" style="fill:#be202e"/>
            <path d="m 212.7,262.8 c -1,0.2 -2,0.3 -3.1,0.5 v 0 c 1,-0.2 2,-0.4 3.1,-0.5 z" id="path7350" style="opacity:0.35;fill:#be202e"/>
            <path d="m 212.7,262.8 c -1,0.2 -2,0.3 -3.1,0.5 v 0 c 1,-0.2 2,-0.4 3.1,-0.5 z" id="path7362" style="fill:url(#linearGradient7410-1)"/>
            <path d="m 220.7,236.9 c 0.3,0 0.6,-0.1 1,-0.1 -0.3,0 -0.6,0.1 -1,0.1 z" id="path7364" style="fill:#be202e"/>
            <path d="m 220.7,236.9 c 0.3,0 0.6,-0.1 1,-0.1 -0.3,0 -0.6,0.1 -1,0.1 z" id="path7366" style="opacity:0.35;fill:#be202e"/>
            <path d="m 220.7,236.9 c 0.3,0 0.6,-0.1 1,-0.1 -0.3,0 -0.6,0.1 -1,0.1 z" id="path7378" style="fill:url(#linearGradient7412-7)"/>
            <path d="m 220.8,236.9 c 0,0 0,0 0,0 v 0 0 0 c 0,0 0,0 0,0 z" id="path7380" style="fill:#be202e"/>
            <path d="m 220.8,236.9 c 0,0 0,0 0,0 v 0 0 0 c 0,0 0,0 0,0 z" id="path7382" style="opacity:0.35;fill:#be202e"/>
            <path d="m 220.8,236.9 c 0,0 0,0 0,0 v 0 0 0 c 0,0 0,0 0,0 z" id="path7394" style="fill:url(#linearGradient7414-5)"/>
        </g>
    </g>
</svg>